<mxfile host="app.diagrams.net" modified="2022-06-01T12:31:14.509Z" agent="5.0 (Windows NT 10.0; Win64; x64) AppleWebKit/537.36 (KHTML, like Gecko) Chrome/100.0.4896.127 Safari/537.36 OPR/86.0.4363.70" etag="y546htixbCrriMqYqWvm" version="18.2.0" type="github">
  <diagram id="1csV_Ddix8SlzEKUmhvD" name="Page-1">
    <mxGraphModel dx="1381" dy="764" grid="1" gridSize="10" guides="1" tooltips="1" connect="1" arrows="1" fold="1" page="1" pageScale="1" pageWidth="1654" pageHeight="1169" math="0" shadow="0">
      <root>
        <mxCell id="0" />
        <mxCell id="1" parent="0" />
        <mxCell id="_8dSPXYWP2zA_d5YcyBC-33" value="" style="group" parent="1" vertex="1" connectable="0">
          <mxGeometry x="477" y="239" width="700" height="690" as="geometry" />
        </mxCell>
        <mxCell id="_8dSPXYWP2zA_d5YcyBC-1" value="Animal" style="swimlane;fontStyle=1;align=center;verticalAlign=top;childLayout=stackLayout;horizontal=1;startSize=26;horizontalStack=0;resizeParent=1;resizeParentMax=0;resizeLast=0;collapsible=1;marginBottom=0;" parent="_8dSPXYWP2zA_d5YcyBC-33" vertex="1">
          <mxGeometry y="255" width="410" height="180" as="geometry" />
        </mxCell>
        <mxCell id="_8dSPXYWP2zA_d5YcyBC-2" value="name: string&#xa;species: string&#xa;sound: string&#xa;diet: string&#xa;portion: number" style="text;strokeColor=none;fillColor=none;align=left;verticalAlign=top;spacingLeft=4;spacingRight=4;overflow=hidden;rotatable=0;points=[[0,0.5],[1,0.5]];portConstraint=eastwest;" parent="_8dSPXYWP2zA_d5YcyBC-1" vertex="1">
          <mxGeometry y="26" width="410" height="84" as="geometry" />
        </mxCell>
        <mxCell id="_8dSPXYWP2zA_d5YcyBC-3" value="" style="line;strokeWidth=1;fillColor=none;align=left;verticalAlign=middle;spacingTop=-1;spacingLeft=3;spacingRight=3;rotatable=0;labelPosition=right;points=[];portConstraint=eastwest;" parent="_8dSPXYWP2zA_d5YcyBC-1" vertex="1">
          <mxGeometry y="110" width="410" height="8" as="geometry" />
        </mxCell>
        <mxCell id="_8dSPXYWP2zA_d5YcyBC-4" value="constructor(_name: string, _diet: string, _portion: number)&#xa;sing(): void&#xa;eat(): void&#xa;doSpecialAction(): void" style="text;strokeColor=none;fillColor=none;align=left;verticalAlign=top;spacingLeft=4;spacingRight=4;overflow=hidden;rotatable=0;points=[[0,0.5],[1,0.5]];portConstraint=eastwest;" parent="_8dSPXYWP2zA_d5YcyBC-1" vertex="1">
          <mxGeometry y="118" width="410" height="62" as="geometry" />
        </mxCell>
        <mxCell id="_8dSPXYWP2zA_d5YcyBC-5" value="Cow" style="swimlane;fontStyle=1;align=center;verticalAlign=top;childLayout=stackLayout;horizontal=1;startSize=26;horizontalStack=0;resizeParent=1;resizeParentMax=0;resizeLast=0;collapsible=1;marginBottom=0;" parent="_8dSPXYWP2zA_d5YcyBC-33" vertex="1">
          <mxGeometry x="540" y="295" width="160" height="100" as="geometry" />
        </mxCell>
        <mxCell id="_8dSPXYWP2zA_d5YcyBC-6" value=" " style="text;strokeColor=none;fillColor=none;align=left;verticalAlign=top;spacingLeft=4;spacingRight=4;overflow=hidden;rotatable=0;points=[[0,0.5],[1,0.5]];portConstraint=eastwest;" parent="_8dSPXYWP2zA_d5YcyBC-5" vertex="1">
          <mxGeometry y="26" width="160" height="26" as="geometry" />
        </mxCell>
        <mxCell id="_8dSPXYWP2zA_d5YcyBC-7" value="" style="line;strokeWidth=1;fillColor=none;align=left;verticalAlign=middle;spacingTop=-1;spacingLeft=3;spacingRight=3;rotatable=0;labelPosition=right;points=[];portConstraint=eastwest;" parent="_8dSPXYWP2zA_d5YcyBC-5" vertex="1">
          <mxGeometry y="52" width="160" height="8" as="geometry" />
        </mxCell>
        <mxCell id="_8dSPXYWP2zA_d5YcyBC-8" value="constructor()&#xa;doSpecialAction: void" style="text;strokeColor=none;fillColor=none;align=left;verticalAlign=top;spacingLeft=4;spacingRight=4;overflow=hidden;rotatable=0;points=[[0,0.5],[1,0.5]];portConstraint=eastwest;" parent="_8dSPXYWP2zA_d5YcyBC-5" vertex="1">
          <mxGeometry y="60" width="160" height="40" as="geometry" />
        </mxCell>
        <mxCell id="_8dSPXYWP2zA_d5YcyBC-9" value="Pig" style="swimlane;fontStyle=1;align=center;verticalAlign=top;childLayout=stackLayout;horizontal=1;startSize=26;horizontalStack=0;resizeParent=1;resizeParentMax=0;resizeLast=0;collapsible=1;marginBottom=0;" parent="_8dSPXYWP2zA_d5YcyBC-33" vertex="1">
          <mxGeometry x="540" y="590" width="160" height="100" as="geometry" />
        </mxCell>
        <mxCell id="_8dSPXYWP2zA_d5YcyBC-10" value=" " style="text;strokeColor=none;fillColor=none;align=left;verticalAlign=top;spacingLeft=4;spacingRight=4;overflow=hidden;rotatable=0;points=[[0,0.5],[1,0.5]];portConstraint=eastwest;" parent="_8dSPXYWP2zA_d5YcyBC-9" vertex="1">
          <mxGeometry y="26" width="160" height="26" as="geometry" />
        </mxCell>
        <mxCell id="_8dSPXYWP2zA_d5YcyBC-11" value="" style="line;strokeWidth=1;fillColor=none;align=left;verticalAlign=middle;spacingTop=-1;spacingLeft=3;spacingRight=3;rotatable=0;labelPosition=right;points=[];portConstraint=eastwest;" parent="_8dSPXYWP2zA_d5YcyBC-9" vertex="1">
          <mxGeometry y="52" width="160" height="8" as="geometry" />
        </mxCell>
        <mxCell id="_8dSPXYWP2zA_d5YcyBC-12" value="constructor()&#xa;doSpecialAction: void" style="text;strokeColor=none;fillColor=none;align=left;verticalAlign=top;spacingLeft=4;spacingRight=4;overflow=hidden;rotatable=0;points=[[0,0.5],[1,0.5]];portConstraint=eastwest;" parent="_8dSPXYWP2zA_d5YcyBC-9" vertex="1">
          <mxGeometry y="60" width="160" height="40" as="geometry" />
        </mxCell>
        <mxCell id="_8dSPXYWP2zA_d5YcyBC-13" value="Dog" style="swimlane;fontStyle=1;align=center;verticalAlign=top;childLayout=stackLayout;horizontal=1;startSize=26;horizontalStack=0;resizeParent=1;resizeParentMax=0;resizeLast=0;collapsible=1;marginBottom=0;" parent="_8dSPXYWP2zA_d5YcyBC-33" vertex="1">
          <mxGeometry x="540" width="160" height="100" as="geometry" />
        </mxCell>
        <mxCell id="_8dSPXYWP2zA_d5YcyBC-14" value=" " style="text;strokeColor=none;fillColor=none;align=left;verticalAlign=top;spacingLeft=4;spacingRight=4;overflow=hidden;rotatable=0;points=[[0,0.5],[1,0.5]];portConstraint=eastwest;" parent="_8dSPXYWP2zA_d5YcyBC-13" vertex="1">
          <mxGeometry y="26" width="160" height="26" as="geometry" />
        </mxCell>
        <mxCell id="_8dSPXYWP2zA_d5YcyBC-15" value="" style="line;strokeWidth=1;fillColor=none;align=left;verticalAlign=middle;spacingTop=-1;spacingLeft=3;spacingRight=3;rotatable=0;labelPosition=right;points=[];portConstraint=eastwest;" parent="_8dSPXYWP2zA_d5YcyBC-13" vertex="1">
          <mxGeometry y="52" width="160" height="8" as="geometry" />
        </mxCell>
        <mxCell id="_8dSPXYWP2zA_d5YcyBC-16" value="constructor()&#xa;doSpecialAction: void" style="text;strokeColor=none;fillColor=none;align=left;verticalAlign=top;spacingLeft=4;spacingRight=4;overflow=hidden;rotatable=0;points=[[0,0.5],[1,0.5]];portConstraint=eastwest;" parent="_8dSPXYWP2zA_d5YcyBC-13" vertex="1">
          <mxGeometry y="60" width="160" height="40" as="geometry" />
        </mxCell>
        <mxCell id="_8dSPXYWP2zA_d5YcyBC-17" value="Cat" style="swimlane;fontStyle=1;align=center;verticalAlign=top;childLayout=stackLayout;horizontal=1;startSize=26;horizontalStack=0;resizeParent=1;resizeParentMax=0;resizeLast=0;collapsible=1;marginBottom=0;" parent="_8dSPXYWP2zA_d5YcyBC-33" vertex="1">
          <mxGeometry x="540" y="150" width="160" height="100" as="geometry" />
        </mxCell>
        <mxCell id="_8dSPXYWP2zA_d5YcyBC-18" value=" " style="text;strokeColor=none;fillColor=none;align=left;verticalAlign=top;spacingLeft=4;spacingRight=4;overflow=hidden;rotatable=0;points=[[0,0.5],[1,0.5]];portConstraint=eastwest;" parent="_8dSPXYWP2zA_d5YcyBC-17" vertex="1">
          <mxGeometry y="26" width="160" height="26" as="geometry" />
        </mxCell>
        <mxCell id="_8dSPXYWP2zA_d5YcyBC-19" value="" style="line;strokeWidth=1;fillColor=none;align=left;verticalAlign=middle;spacingTop=-1;spacingLeft=3;spacingRight=3;rotatable=0;labelPosition=right;points=[];portConstraint=eastwest;" parent="_8dSPXYWP2zA_d5YcyBC-17" vertex="1">
          <mxGeometry y="52" width="160" height="8" as="geometry" />
        </mxCell>
        <mxCell id="_8dSPXYWP2zA_d5YcyBC-20" value="constructor()&#xa;doSpecialAction: void" style="text;strokeColor=none;fillColor=none;align=left;verticalAlign=top;spacingLeft=4;spacingRight=4;overflow=hidden;rotatable=0;points=[[0,0.5],[1,0.5]];portConstraint=eastwest;" parent="_8dSPXYWP2zA_d5YcyBC-17" vertex="1">
          <mxGeometry y="60" width="160" height="40" as="geometry" />
        </mxCell>
        <mxCell id="_8dSPXYWP2zA_d5YcyBC-21" value="Chicken" style="swimlane;fontStyle=1;align=center;verticalAlign=top;childLayout=stackLayout;horizontal=1;startSize=26;horizontalStack=0;resizeParent=1;resizeParentMax=0;resizeLast=0;collapsible=1;marginBottom=0;" parent="_8dSPXYWP2zA_d5YcyBC-33" vertex="1">
          <mxGeometry x="540" y="450" width="160" height="100" as="geometry" />
        </mxCell>
        <mxCell id="_8dSPXYWP2zA_d5YcyBC-22" value=" " style="text;strokeColor=none;fillColor=none;align=left;verticalAlign=top;spacingLeft=4;spacingRight=4;overflow=hidden;rotatable=0;points=[[0,0.5],[1,0.5]];portConstraint=eastwest;" parent="_8dSPXYWP2zA_d5YcyBC-21" vertex="1">
          <mxGeometry y="26" width="160" height="26" as="geometry" />
        </mxCell>
        <mxCell id="_8dSPXYWP2zA_d5YcyBC-23" value="" style="line;strokeWidth=1;fillColor=none;align=left;verticalAlign=middle;spacingTop=-1;spacingLeft=3;spacingRight=3;rotatable=0;labelPosition=right;points=[];portConstraint=eastwest;" parent="_8dSPXYWP2zA_d5YcyBC-21" vertex="1">
          <mxGeometry y="52" width="160" height="8" as="geometry" />
        </mxCell>
        <mxCell id="_8dSPXYWP2zA_d5YcyBC-24" value="constructor()&#xa;doSpecialAction: void" style="text;strokeColor=none;fillColor=none;align=left;verticalAlign=top;spacingLeft=4;spacingRight=4;overflow=hidden;rotatable=0;points=[[0,0.5],[1,0.5]];portConstraint=eastwest;" parent="_8dSPXYWP2zA_d5YcyBC-21" vertex="1">
          <mxGeometry y="60" width="160" height="40" as="geometry" />
        </mxCell>
        <mxCell id="_8dSPXYWP2zA_d5YcyBC-28" value="" style="endArrow=block;endSize=16;endFill=0;html=1;rounded=0;exitX=0;exitY=0.5;exitDx=0;exitDy=0;entryX=1;entryY=0;entryDx=0;entryDy=0;" parent="_8dSPXYWP2zA_d5YcyBC-33" source="_8dSPXYWP2zA_d5YcyBC-14" target="_8dSPXYWP2zA_d5YcyBC-1" edge="1">
          <mxGeometry width="160" relative="1" as="geometry">
            <mxPoint x="440" y="360" as="sourcePoint" />
            <mxPoint x="600" y="360" as="targetPoint" />
          </mxGeometry>
        </mxCell>
        <mxCell id="_8dSPXYWP2zA_d5YcyBC-29" value="" style="endArrow=block;endSize=16;endFill=0;html=1;rounded=0;exitX=0;exitY=0.5;exitDx=0;exitDy=0;entryX=1.002;entryY=0.143;entryDx=0;entryDy=0;entryPerimeter=0;" parent="_8dSPXYWP2zA_d5YcyBC-33" source="_8dSPXYWP2zA_d5YcyBC-18" target="_8dSPXYWP2zA_d5YcyBC-2" edge="1">
          <mxGeometry x="-0.1447" y="8" width="160" relative="1" as="geometry">
            <mxPoint x="440" y="280" as="sourcePoint" />
            <mxPoint x="600" y="280" as="targetPoint" />
            <mxPoint as="offset" />
          </mxGeometry>
        </mxCell>
        <mxCell id="_8dSPXYWP2zA_d5YcyBC-30" value="" style="endArrow=block;endSize=16;endFill=0;html=1;rounded=0;exitX=0;exitY=0.5;exitDx=0;exitDy=0;entryX=1.004;entryY=0.639;entryDx=0;entryDy=0;entryPerimeter=0;" parent="_8dSPXYWP2zA_d5YcyBC-33" source="_8dSPXYWP2zA_d5YcyBC-6" target="_8dSPXYWP2zA_d5YcyBC-2" edge="1">
          <mxGeometry width="160" relative="1" as="geometry">
            <mxPoint x="440" y="280" as="sourcePoint" />
            <mxPoint x="420" y="360" as="targetPoint" />
          </mxGeometry>
        </mxCell>
        <mxCell id="_8dSPXYWP2zA_d5YcyBC-31" value="" style="endArrow=block;endSize=16;endFill=0;html=1;rounded=0;exitX=0;exitY=0.5;exitDx=0;exitDy=0;entryX=1.002;entryY=0.591;entryDx=0;entryDy=0;entryPerimeter=0;" parent="_8dSPXYWP2zA_d5YcyBC-33" source="_8dSPXYWP2zA_d5YcyBC-22" target="_8dSPXYWP2zA_d5YcyBC-4" edge="1">
          <mxGeometry width="160" relative="1" as="geometry">
            <mxPoint x="440" y="440" as="sourcePoint" />
            <mxPoint x="600" y="440" as="targetPoint" />
          </mxGeometry>
        </mxCell>
        <mxCell id="_8dSPXYWP2zA_d5YcyBC-32" value="" style="endArrow=block;endSize=16;endFill=0;html=1;rounded=0;entryX=1;entryY=1.008;entryDx=0;entryDy=0;entryPerimeter=0;exitX=0;exitY=0.5;exitDx=0;exitDy=0;" parent="_8dSPXYWP2zA_d5YcyBC-33" source="_8dSPXYWP2zA_d5YcyBC-10" target="_8dSPXYWP2zA_d5YcyBC-4" edge="1">
          <mxGeometry width="160" relative="1" as="geometry">
            <mxPoint x="440" y="440" as="sourcePoint" />
            <mxPoint x="600" y="440" as="targetPoint" />
          </mxGeometry>
        </mxCell>
        <mxCell id="_8dSPXYWP2zA_d5YcyBC-40" value="" style="group" parent="1" vertex="1" connectable="0">
          <mxGeometry x="50" y="1190" width="280" height="210" as="geometry" />
        </mxCell>
        <mxCell id="_8dSPXYWP2zA_d5YcyBC-34" value="constructor" style="rounded=1;whiteSpace=wrap;html=1;verticalAlign=top;align=left;arcSize=3;" parent="_8dSPXYWP2zA_d5YcyBC-40" vertex="1">
          <mxGeometry y="30" width="280" height="180" as="geometry" />
        </mxCell>
        <mxCell id="_8dSPXYWP2zA_d5YcyBC-35" value="_name: string&lt;br&gt;_diet: string&lt;br&gt;_portion: number" style="rounded=0;whiteSpace=wrap;html=1;" parent="_8dSPXYWP2zA_d5YcyBC-40" vertex="1">
          <mxGeometry x="140" width="120" height="60" as="geometry" />
        </mxCell>
        <mxCell id="_8dSPXYWP2zA_d5YcyBC-36" value="apply the parameters to the animal&#39;s properties" style="rounded=1;whiteSpace=wrap;html=1;" parent="_8dSPXYWP2zA_d5YcyBC-40" vertex="1">
          <mxGeometry x="80" y="90" width="120" height="60" as="geometry" />
        </mxCell>
        <mxCell id="_8dSPXYWP2zA_d5YcyBC-38" style="edgeStyle=orthogonalEdgeStyle;rounded=0;orthogonalLoop=1;jettySize=auto;html=1;exitX=0.5;exitY=1;exitDx=0;exitDy=0;entryX=0.5;entryY=0;entryDx=0;entryDy=0;" parent="_8dSPXYWP2zA_d5YcyBC-40" source="_8dSPXYWP2zA_d5YcyBC-35" target="_8dSPXYWP2zA_d5YcyBC-36" edge="1">
          <mxGeometry relative="1" as="geometry">
            <Array as="points">
              <mxPoint x="200" y="70" />
              <mxPoint x="140" y="70" />
            </Array>
          </mxGeometry>
        </mxCell>
        <mxCell id="_8dSPXYWP2zA_d5YcyBC-37" value="" style="ellipse;html=1;shape=endState;fillColor=#000000;strokeColor=#000000;" parent="_8dSPXYWP2zA_d5YcyBC-40" vertex="1">
          <mxGeometry x="125" y="170" width="30" height="30" as="geometry" />
        </mxCell>
        <mxCell id="_8dSPXYWP2zA_d5YcyBC-39" style="edgeStyle=orthogonalEdgeStyle;rounded=0;orthogonalLoop=1;jettySize=auto;html=1;exitX=0.5;exitY=1;exitDx=0;exitDy=0;entryX=0.5;entryY=0;entryDx=0;entryDy=0;" parent="_8dSPXYWP2zA_d5YcyBC-40" source="_8dSPXYWP2zA_d5YcyBC-36" target="_8dSPXYWP2zA_d5YcyBC-37" edge="1">
          <mxGeometry relative="1" as="geometry" />
        </mxCell>
        <mxCell id="_8dSPXYWP2zA_d5YcyBC-62" value="" style="group" parent="1" vertex="1" connectable="0">
          <mxGeometry x="357" y="1190" width="713" height="580" as="geometry" />
        </mxCell>
        <mxCell id="_8dSPXYWP2zA_d5YcyBC-41" value="eat" style="rounded=1;whiteSpace=wrap;html=1;verticalAlign=top;align=left;arcSize=2;" parent="_8dSPXYWP2zA_d5YcyBC-62" vertex="1">
          <mxGeometry y="30" width="713" height="550" as="geometry" />
        </mxCell>
        <mxCell id="_8dSPXYWP2zA_d5YcyBC-42" value="_foodStorage{}&lt;br&gt;_foodParagraphElement:&lt;br&gt;HTMLPragraphElement" style="rounded=0;whiteSpace=wrap;html=1;" parent="_8dSPXYWP2zA_d5YcyBC-62" vertex="1">
          <mxGeometry x="453" width="147" height="60" as="geometry" />
        </mxCell>
        <mxCell id="_8dSPXYWP2zA_d5YcyBC-43" value="_foodStorage[this.diet] -= this.portion" style="rounded=1;whiteSpace=wrap;html=1;labelBorderColor=none;" parent="_8dSPXYWP2zA_d5YcyBC-62" vertex="1">
          <mxGeometry x="296.5" y="100" width="120" height="60" as="geometry" />
        </mxCell>
        <mxCell id="_8dSPXYWP2zA_d5YcyBC-52" style="edgeStyle=orthogonalEdgeStyle;rounded=0;orthogonalLoop=1;jettySize=auto;html=1;exitX=0.5;exitY=1;exitDx=0;exitDy=0;entryX=0.5;entryY=0;entryDx=0;entryDy=0;" parent="_8dSPXYWP2zA_d5YcyBC-62" source="_8dSPXYWP2zA_d5YcyBC-42" target="_8dSPXYWP2zA_d5YcyBC-43" edge="1">
          <mxGeometry relative="1" as="geometry" />
        </mxCell>
        <mxCell id="_8dSPXYWP2zA_d5YcyBC-44" value="" style="rhombus;whiteSpace=wrap;html=1;labelBorderColor=none;" parent="_8dSPXYWP2zA_d5YcyBC-62" vertex="1">
          <mxGeometry x="341.5" y="180" width="30" height="30" as="geometry" />
        </mxCell>
        <mxCell id="_8dSPXYWP2zA_d5YcyBC-53" style="edgeStyle=orthogonalEdgeStyle;rounded=0;orthogonalLoop=1;jettySize=auto;html=1;exitX=0.5;exitY=1;exitDx=0;exitDy=0;entryX=0.5;entryY=0;entryDx=0;entryDy=0;" parent="_8dSPXYWP2zA_d5YcyBC-62" source="_8dSPXYWP2zA_d5YcyBC-43" target="_8dSPXYWP2zA_d5YcyBC-44" edge="1">
          <mxGeometry relative="1" as="geometry" />
        </mxCell>
        <mxCell id="_8dSPXYWP2zA_d5YcyBC-45" value="_foodParagraph.innerHTML = `There are ${_foodStorage[this.diet]} portions of ${this.diet} left`" style="rounded=1;whiteSpace=wrap;html=1;labelBorderColor=none;" parent="_8dSPXYWP2zA_d5YcyBC-62" vertex="1">
          <mxGeometry x="21.5" y="260" width="240" height="60" as="geometry" />
        </mxCell>
        <mxCell id="_8dSPXYWP2zA_d5YcyBC-54" style="edgeStyle=orthogonalEdgeStyle;rounded=0;orthogonalLoop=1;jettySize=auto;html=1;exitX=0;exitY=0.5;exitDx=0;exitDy=0;entryX=0.5;entryY=0;entryDx=0;entryDy=0;" parent="_8dSPXYWP2zA_d5YcyBC-62" source="_8dSPXYWP2zA_d5YcyBC-44" target="_8dSPXYWP2zA_d5YcyBC-45" edge="1">
          <mxGeometry relative="1" as="geometry" />
        </mxCell>
        <mxCell id="_8dSPXYWP2zA_d5YcyBC-46" value="_foodParagraph.innerHTML = `There is 1 portion of ${this.diet} left`" style="rounded=1;whiteSpace=wrap;html=1;labelBorderColor=none;" parent="_8dSPXYWP2zA_d5YcyBC-62" vertex="1">
          <mxGeometry x="276.5" y="260" width="160" height="60" as="geometry" />
        </mxCell>
        <mxCell id="_8dSPXYWP2zA_d5YcyBC-55" style="edgeStyle=orthogonalEdgeStyle;rounded=0;orthogonalLoop=1;jettySize=auto;html=1;exitX=0.5;exitY=1;exitDx=0;exitDy=0;entryX=0.5;entryY=0;entryDx=0;entryDy=0;" parent="_8dSPXYWP2zA_d5YcyBC-62" source="_8dSPXYWP2zA_d5YcyBC-44" target="_8dSPXYWP2zA_d5YcyBC-46" edge="1">
          <mxGeometry relative="1" as="geometry" />
        </mxCell>
        <mxCell id="_8dSPXYWP2zA_d5YcyBC-47" value="_foodParagraph.innerHTML = `There is no more ${this.diet} left. You gotta buy some Old McD!`" style="rounded=1;whiteSpace=wrap;html=1;labelBorderColor=none;" parent="_8dSPXYWP2zA_d5YcyBC-62" vertex="1">
          <mxGeometry x="453" y="260" width="180" height="60" as="geometry" />
        </mxCell>
        <mxCell id="_8dSPXYWP2zA_d5YcyBC-56" style="edgeStyle=orthogonalEdgeStyle;rounded=0;orthogonalLoop=1;jettySize=auto;html=1;exitX=1;exitY=0.5;exitDx=0;exitDy=0;entryX=0.5;entryY=0;entryDx=0;entryDy=0;" parent="_8dSPXYWP2zA_d5YcyBC-62" source="_8dSPXYWP2zA_d5YcyBC-44" target="_8dSPXYWP2zA_d5YcyBC-47" edge="1">
          <mxGeometry relative="1" as="geometry" />
        </mxCell>
        <mxCell id="_8dSPXYWP2zA_d5YcyBC-48" value="_foodStorage[this.diet] = 200" style="rounded=1;whiteSpace=wrap;html=1;labelBorderColor=none;" parent="_8dSPXYWP2zA_d5YcyBC-62" vertex="1">
          <mxGeometry x="483" y="360" width="120" height="60" as="geometry" />
        </mxCell>
        <mxCell id="_8dSPXYWP2zA_d5YcyBC-59" style="edgeStyle=orthogonalEdgeStyle;rounded=0;orthogonalLoop=1;jettySize=auto;html=1;exitX=0.5;exitY=1;exitDx=0;exitDy=0;entryX=0.5;entryY=0;entryDx=0;entryDy=0;" parent="_8dSPXYWP2zA_d5YcyBC-62" source="_8dSPXYWP2zA_d5YcyBC-47" target="_8dSPXYWP2zA_d5YcyBC-48" edge="1">
          <mxGeometry relative="1" as="geometry" />
        </mxCell>
        <mxCell id="_8dSPXYWP2zA_d5YcyBC-50" value="" style="rhombus;whiteSpace=wrap;html=1;labelBorderColor=none;" parent="_8dSPXYWP2zA_d5YcyBC-62" vertex="1">
          <mxGeometry x="341.5" y="460" width="30" height="30" as="geometry" />
        </mxCell>
        <mxCell id="_8dSPXYWP2zA_d5YcyBC-57" style="edgeStyle=orthogonalEdgeStyle;rounded=0;orthogonalLoop=1;jettySize=auto;html=1;exitX=0.5;exitY=1;exitDx=0;exitDy=0;entryX=0;entryY=0.5;entryDx=0;entryDy=0;" parent="_8dSPXYWP2zA_d5YcyBC-62" source="_8dSPXYWP2zA_d5YcyBC-45" target="_8dSPXYWP2zA_d5YcyBC-50" edge="1">
          <mxGeometry relative="1" as="geometry" />
        </mxCell>
        <mxCell id="_8dSPXYWP2zA_d5YcyBC-58" style="edgeStyle=orthogonalEdgeStyle;rounded=0;orthogonalLoop=1;jettySize=auto;html=1;exitX=0.5;exitY=1;exitDx=0;exitDy=0;entryX=0.5;entryY=0;entryDx=0;entryDy=0;" parent="_8dSPXYWP2zA_d5YcyBC-62" source="_8dSPXYWP2zA_d5YcyBC-46" target="_8dSPXYWP2zA_d5YcyBC-50" edge="1">
          <mxGeometry relative="1" as="geometry" />
        </mxCell>
        <mxCell id="_8dSPXYWP2zA_d5YcyBC-60" style="edgeStyle=orthogonalEdgeStyle;rounded=0;orthogonalLoop=1;jettySize=auto;html=1;exitX=0.5;exitY=1;exitDx=0;exitDy=0;entryX=1;entryY=0.5;entryDx=0;entryDy=0;" parent="_8dSPXYWP2zA_d5YcyBC-62" source="_8dSPXYWP2zA_d5YcyBC-48" target="_8dSPXYWP2zA_d5YcyBC-50" edge="1">
          <mxGeometry relative="1" as="geometry" />
        </mxCell>
        <mxCell id="_8dSPXYWP2zA_d5YcyBC-51" value="" style="ellipse;html=1;shape=endState;fillColor=#000000;strokeColor=#000000;" parent="_8dSPXYWP2zA_d5YcyBC-62" vertex="1">
          <mxGeometry x="341.5" y="520" width="30" height="30" as="geometry" />
        </mxCell>
        <mxCell id="_8dSPXYWP2zA_d5YcyBC-61" style="edgeStyle=orthogonalEdgeStyle;rounded=0;orthogonalLoop=1;jettySize=auto;html=1;exitX=0.5;exitY=1;exitDx=0;exitDy=0;entryX=0.5;entryY=0;entryDx=0;entryDy=0;" parent="_8dSPXYWP2zA_d5YcyBC-62" source="_8dSPXYWP2zA_d5YcyBC-50" target="_8dSPXYWP2zA_d5YcyBC-51" edge="1">
          <mxGeometry relative="1" as="geometry" />
        </mxCell>
        <mxCell id="GHM1AjA-eYtkxt2MmcrY-9" value="" style="group" vertex="1" connectable="0" parent="1">
          <mxGeometry x="1160" y="1190" width="470" height="340" as="geometry" />
        </mxCell>
        <mxCell id="GHM1AjA-eYtkxt2MmcrY-1" value="sing" style="rounded=1;whiteSpace=wrap;html=1;arcSize=2;verticalAlign=top;align=left;" vertex="1" parent="GHM1AjA-eYtkxt2MmcrY-9">
          <mxGeometry y="30" width="470" height="310" as="geometry" />
        </mxCell>
        <mxCell id="GHM1AjA-eYtkxt2MmcrY-2" value="_heading: HTMLHeadingElement&lt;br&gt;_song: HTMLParagraphElement" style="rounded=0;whiteSpace=wrap;html=1;" vertex="1" parent="GHM1AjA-eYtkxt2MmcrY-9">
          <mxGeometry x="290" width="150" height="60" as="geometry" />
        </mxCell>
        <mxCell id="GHM1AjA-eYtkxt2MmcrY-3" value="_heading.innerHTML = this.name" style="rounded=1;whiteSpace=wrap;html=1;" vertex="1" parent="GHM1AjA-eYtkxt2MmcrY-9">
          <mxGeometry x="136.25" y="110" width="197.5" height="60" as="geometry" />
        </mxCell>
        <mxCell id="GHM1AjA-eYtkxt2MmcrY-6" style="edgeStyle=orthogonalEdgeStyle;rounded=0;orthogonalLoop=1;jettySize=auto;html=1;exitX=0.5;exitY=1;exitDx=0;exitDy=0;entryX=0.5;entryY=0;entryDx=0;entryDy=0;" edge="1" parent="GHM1AjA-eYtkxt2MmcrY-9" source="GHM1AjA-eYtkxt2MmcrY-2" target="GHM1AjA-eYtkxt2MmcrY-3">
          <mxGeometry relative="1" as="geometry" />
        </mxCell>
        <mxCell id="GHM1AjA-eYtkxt2MmcrY-4" value="_song.innerHTML = `Old McDonald[...] and on his farm he had a ${this.species} [...] and a ${this.sound}${this.sound} here [...]`" style="rounded=1;whiteSpace=wrap;html=1;" vertex="1" parent="GHM1AjA-eYtkxt2MmcrY-9">
          <mxGeometry x="136.25" y="200" width="197.5" height="70" as="geometry" />
        </mxCell>
        <mxCell id="GHM1AjA-eYtkxt2MmcrY-7" style="edgeStyle=orthogonalEdgeStyle;rounded=0;orthogonalLoop=1;jettySize=auto;html=1;exitX=0.5;exitY=1;exitDx=0;exitDy=0;entryX=0.5;entryY=0;entryDx=0;entryDy=0;" edge="1" parent="GHM1AjA-eYtkxt2MmcrY-9" source="GHM1AjA-eYtkxt2MmcrY-3" target="GHM1AjA-eYtkxt2MmcrY-4">
          <mxGeometry relative="1" as="geometry" />
        </mxCell>
        <mxCell id="GHM1AjA-eYtkxt2MmcrY-5" value="" style="ellipse;html=1;shape=endState;fillColor=#000000;strokeColor=#000000;" vertex="1" parent="GHM1AjA-eYtkxt2MmcrY-9">
          <mxGeometry x="220" y="290" width="30" height="30" as="geometry" />
        </mxCell>
        <mxCell id="GHM1AjA-eYtkxt2MmcrY-8" style="edgeStyle=orthogonalEdgeStyle;rounded=0;orthogonalLoop=1;jettySize=auto;html=1;exitX=0.5;exitY=1;exitDx=0;exitDy=0;entryX=0.5;entryY=0;entryDx=0;entryDy=0;" edge="1" parent="GHM1AjA-eYtkxt2MmcrY-9" source="GHM1AjA-eYtkxt2MmcrY-4" target="GHM1AjA-eYtkxt2MmcrY-5">
          <mxGeometry relative="1" as="geometry" />
        </mxCell>
        <mxCell id="GHM1AjA-eYtkxt2MmcrY-11" value="constructor" style="rounded=1;whiteSpace=wrap;html=1;verticalAlign=top;align=left;arcSize=3;" vertex="1" parent="1">
          <mxGeometry x="80" y="2520" width="280" height="180" as="geometry" />
        </mxCell>
        <mxCell id="GHM1AjA-eYtkxt2MmcrY-12" value="_name: string&lt;br&gt;_diet: string&lt;br&gt;_portion: number" style="rounded=0;whiteSpace=wrap;html=1;" vertex="1" parent="1">
          <mxGeometry x="220" y="2490" width="120" height="60" as="geometry" />
        </mxCell>
        <mxCell id="GHM1AjA-eYtkxt2MmcrY-13" value="apply the parameters to the animal&#39;s properties" style="rounded=1;whiteSpace=wrap;html=1;" vertex="1" parent="1">
          <mxGeometry x="160" y="2580" width="120" height="60" as="geometry" />
        </mxCell>
        <mxCell id="GHM1AjA-eYtkxt2MmcrY-14" style="edgeStyle=orthogonalEdgeStyle;rounded=0;orthogonalLoop=1;jettySize=auto;html=1;exitX=0.5;exitY=1;exitDx=0;exitDy=0;entryX=0.5;entryY=0;entryDx=0;entryDy=0;" edge="1" parent="1" source="GHM1AjA-eYtkxt2MmcrY-12" target="GHM1AjA-eYtkxt2MmcrY-13">
          <mxGeometry relative="1" as="geometry">
            <Array as="points">
              <mxPoint x="280" y="2560" />
              <mxPoint x="220" y="2560" />
            </Array>
          </mxGeometry>
        </mxCell>
        <mxCell id="GHM1AjA-eYtkxt2MmcrY-15" value="" style="ellipse;html=1;shape=endState;fillColor=#000000;strokeColor=#000000;" vertex="1" parent="1">
          <mxGeometry x="205" y="2660" width="30" height="30" as="geometry" />
        </mxCell>
        <mxCell id="GHM1AjA-eYtkxt2MmcrY-16" style="edgeStyle=orthogonalEdgeStyle;rounded=0;orthogonalLoop=1;jettySize=auto;html=1;exitX=0.5;exitY=1;exitDx=0;exitDy=0;entryX=0.5;entryY=0;entryDx=0;entryDy=0;" edge="1" parent="1" source="GHM1AjA-eYtkxt2MmcrY-13" target="GHM1AjA-eYtkxt2MmcrY-15">
          <mxGeometry relative="1" as="geometry" />
        </mxCell>
      </root>
    </mxGraphModel>
  </diagram>
</mxfile>
